<svg width="57" height="23" viewBox="0 0 57 23" fill="none" xmlns="http://www.w3.org/2000/svg">
<g clip-path="url(#clip0_767_828)">
<path d="M24.033 0.0836974V17.3061H26.1908V10.3298H29.7588C31.2274 10.3298 32.4623 9.84057 33.4657 8.86214C33.9652 8.40326 34.362 7.83914 34.6289 7.20842C34.8959 6.57771 35.0266 5.89532 35.0122 5.20799C35.0224 4.52422 34.8896 3.84614 34.6229 3.21931C34.3561 2.59248 33.9615 2.03141 33.4657 1.57381C32.9746 1.08646 32.3942 0.703641 31.758 0.447452C31.1217 0.191263 30.4423 0.0667836 29.7588 0.0812016L24.033 0.0836974ZM29.9439 2.2053C30.3205 2.21204 30.692 2.29614 31.0362 2.45262C31.3805 2.60911 31.6907 2.8348 31.9484 3.11634C32.2228 3.38988 32.4409 3.71702 32.5898 4.07842C32.7388 4.43982 32.8155 4.82816 32.8155 5.22047C32.8155 5.61279 32.7388 6.00112 32.5898 6.36252C32.4409 6.72393 32.2228 7.05106 31.9484 7.3246C31.6725 7.61734 31.34 7.84782 30.9722 8.00126C30.6044 8.1547 30.2094 8.22773 29.8124 8.21568H26.1908V2.2053H29.8124C29.8563 2.20425 29.9001 2.20425 29.9439 2.2053ZM39.988 5.13811C37.9373 5.13811 36.3907 5.90687 35.3435 7.44691L37.2456 8.67244C37.947 7.63161 38.9017 7.10995 40.1073 7.10995C40.8765 7.10026 41.6209 7.38815 42.1921 7.91616C42.4733 8.15444 42.6992 8.45392 42.8534 8.79283C43.0076 9.13174 43.0862 9.50159 43.0835 9.87552V10.3797C42.2554 9.89798 41.1984 9.65837 39.9173 9.65837C38.4146 9.65837 37.2139 10.0203 36.3152 10.7416C35.4141 11.4605 34.966 12.4314 34.966 13.6495C34.9562 14.1976 35.0659 14.7411 35.2871 15.2403C35.5083 15.7394 35.8354 16.1817 36.2446 16.5349C37.097 17.3036 38.1565 17.6905 39.4229 17.6905C40.9086 17.6905 42.0971 17.0166 42.9909 15.6687H43.0835V17.3036H45.1488V10.0427C45.1488 8.52019 44.6861 7.32211 43.7654 6.44851C42.8399 5.5749 41.5832 5.13811 39.988 5.13811ZM45.4995 5.52249L50.239 16.5598L47.5648 22.5003H49.7933L57 5.51999H54.6497L51.3179 13.9839H51.2692L47.8449 5.52249H45.4995ZM40.2729 11.433C41.4761 11.433 42.4162 11.7076 43.0884 12.2567C43.0884 13.1852 42.7304 13.9939 42.0167 14.6853C41.3727 15.3456 40.4995 15.7172 39.5885 15.7187C38.9799 15.7306 38.386 15.5259 37.908 15.1396C37.6856 14.9747 37.5049 14.7578 37.3807 14.5068C37.2566 14.2559 37.1927 13.9782 37.1944 13.6969C37.1944 13.0554 37.4867 12.5238 38.0785 12.082C38.6631 11.6502 39.3937 11.433 40.2705 11.433H40.2729Z" fill="#988FBE"/>
<path d="M17.9763 7.4801H17.2452V7.4415H9.07643V11.1622H14.206C13.4576 13.3282 11.4467 14.883 9.07643 14.883C6.06895 14.883 3.63057 12.384 3.63057 9.30187C3.63057 6.2197 6.06895 3.72075 9.07643 3.72075C10.4647 3.72075 11.7277 4.25747 12.6893 5.13417L15.2566 2.50313C13.6355 0.954837 11.4672 0 9.07643 0C4.06397 0 0 4.16491 0 9.30187C0 14.4388 4.06397 18.6037 9.07643 18.6037C14.0889 18.6037 18.1529 14.4388 18.1529 9.30187C18.1529 8.67818 18.0902 8.06938 17.9763 7.4801Z" fill="#988FBE"/>
<path d="M1.04675 4.97232L4.02881 7.2136C4.83571 5.16626 6.78986 3.72075 9.07667 3.72075C10.4649 3.72075 11.7279 4.25747 12.6895 5.13417L15.2568 2.50313C13.6358 0.954837 11.4674 0 9.07667 0C5.59041 0 2.56705 2.01711 1.04675 4.97232Z" fill="#988FBE"/>
<path d="M9.07614 18.6039C11.4206 18.6039 13.5508 17.6844 15.1614 16.1891L12.3523 13.753C11.4104 14.4871 10.2595 14.8841 9.07614 14.8831C6.71536 14.8831 4.71083 13.3404 3.95567 11.1875L0.99585 13.5246C2.498 16.537 5.54859 18.6039 9.07614 18.6039Z" fill="#877EB2"/>
<path d="M17.9763 7.48001H17.2452V7.44141H9.07642V11.1622H14.206C13.848 12.193 13.2032 13.0938 12.3512 13.7532L12.3526 13.7523L15.1617 16.1884C14.9629 16.3735 18.1528 13.9527 18.1528 9.30178C18.1528 8.67809 18.0902 8.06928 17.9763 7.48001Z" fill="#6B638D"/>
</g>
<defs>
<clipPath id="clip0_767_828">
<rect width="56.9999" height="22.5" fill="white"/>
</clipPath>
</defs>
</svg>
