<svg width="39" height="24" viewBox="0 0 39 24" fill="none" xmlns="http://www.w3.org/2000/svg">
<g clip-path="url(#clip0_767_822)">
<path d="M14.213 2.56641H24.7476V21.4315H14.213V2.56641Z" fill="#877EB3"/>
<path d="M14.8823 11.999C14.8823 8.16605 16.6882 4.76626 19.4639 2.56639C17.424 0.966553 14.8489 0 12.0397 0C5.38428 0 0 5.36614 0 11.999C0 18.6317 5.38428 23.998 12.0396 23.998C14.8488 23.998 17.4238 23.0315 19.4639 21.4315C16.6882 19.265 14.8823 15.832 14.8823 11.999Z" fill="#6B638D"/>
<path d="M38.9613 11.999C38.9613 18.6317 33.577 23.998 26.9217 23.998C24.1125 23.998 21.5375 23.0315 19.4974 21.4315C22.3067 19.2318 24.0792 15.832 24.0792 11.999C24.0792 8.16605 22.2731 4.76626 19.4974 2.56639C21.5373 0.966553 24.1125 0 26.9217 0C33.577 0 38.9615 5.39955 38.9615 11.999H38.9613Z" fill="#988FBE"/>
</g>
<defs>
<clipPath id="clip0_767_822">
<rect width="39" height="24" fill="white"/>
</clipPath>
</defs>
</svg>
