<svg width="22" height="16" viewBox="0 0 22 16" fill="none" xmlns="http://www.w3.org/2000/svg">
<path d="M21.5403 2.46917C21.2873 1.49722 20.5418 0.731839 19.5951 0.47208C17.8796 0 11 0 11 0C11 0 4.12038 0 2.40475 0.47208C1.45813 0.731839 0.712626 1.49722 0.459625 2.46917C0 4.23074 0 7.90626 0 7.90626C0 7.90626 0 11.5816 0.459625 13.3433C0.712626 14.3153 1.45813 15.0807 2.40475 15.3406C4.12038 15.8125 11 15.8125 11 15.8125C11 15.8125 17.8796 15.8125 19.5951 15.3406C20.5418 15.0807 21.2873 14.3153 21.5403 13.3433C22 11.5816 22 7.90626 22 7.90626C22 7.90626 22 4.23074 21.5403 2.46917Z" fill="#A69FC8"/>
<path d="M8.24951 12.376V4.12598L15.1245 8.25113L8.24951 12.376Z" fill="#40345E"/>
</svg>
