<svg width="14" height="13" viewBox="0 0 14 13" fill="none" xmlns="http://www.w3.org/2000/svg">
<path d="M0.207405 5.73445C1.62075 4.90023 3.20571 4.19602 4.67962 3.49181C7.22364 2.34341 9.76765 1.20584 12.3521 0.154938C12.8568 -0.0292399 13.7553 -0.202584 13.8462 0.599132C13.7957 1.72587 13.6039 2.8526 13.4625 3.96851C13.1193 6.43866 12.7155 8.89798 12.3218 11.3573C12.1905 12.1807 11.2315 12.6032 10.6157 12.0723C9.14175 11.0106 7.66783 9.94888 6.21411 8.86548C5.73963 8.34544 6.18382 7.5979 6.60782 7.22954C7.81926 5.95113 9.10136 4.8569 10.2522 3.51348C10.5652 2.71176 9.64651 3.38347 9.34365 3.58932C7.68802 4.81356 6.07277 6.11364 4.31619 7.19704C3.42781 7.72791 2.37789 7.27288 1.48951 6.98036C0.691979 6.63367 -0.479076 6.27615 0.207405 5.73445Z" fill="#988FBE"/>
</svg>
