<svg width="20" height="20" viewBox="0 0 20 20" fill="none" xmlns="http://www.w3.org/2000/svg">
<path d="M14.51 3.01L12.55 1.05C11.15 -0.35 8.85001 -0.35 7.45001 1.05L5.49001 3.01C5.10001 3.4 5.10001 4.04 5.49001 4.43L9.30001 8.24C9.69001 8.63 10.32 8.63 10.71 8.24L14.52 4.43C14.9 4.04 14.9 3.4 14.51 3.01Z" fill="#6D668C"/>
<path d="M3.01 5.48977L1.05 7.44977C-0.35 8.84977 -0.35 11.1498 1.05 12.5498L3.01 14.5098C3.4 14.8998 4.03 14.8998 4.42 14.5098L8.23 10.6998C8.62 10.3098 8.62 9.67977 8.23 9.28977L4.43 5.48977C4.04 5.09977 3.4 5.09977 3.01 5.48977Z" fill="#6D668C"/>
<path d="M18.95 7.44977L16.99 5.48977C16.6 5.09977 15.97 5.09977 15.58 5.48977L11.77 9.29977C11.38 9.68977 11.38 10.3198 11.77 10.7098L15.58 14.5198C15.97 14.9098 16.6 14.9098 16.99 14.5198L18.95 12.5598C20.35 11.1498 20.35 8.84977 18.95 7.44977Z" fill="#6D668C"/>
<path d="M5.49005 16.99L7.45005 18.95C8.85005 20.35 11.1501 20.35 12.5501 18.95L14.5101 16.99C14.9001 16.6 14.9001 15.97 14.5101 15.58L10.7001 11.77C10.3101 11.38 9.68005 11.38 9.29005 11.77L5.48005 15.58C5.10005 15.96 5.10005 16.6 5.49005 16.99Z" fill="#6D668C"/>
</svg>
