<svg width="20" height="20" viewBox="0 0 20 20" fill="none" xmlns="http://www.w3.org/2000/svg">
<path d="M10 0C4.48 0 0 4.48 0 10C0 15.52 4.48 20 10 20C15.52 20 20 15.52 20 10C20 4.48 15.52 0 10 0ZM12.67 14.43L10.42 15.93C10.29 16.01 10.15 16.06 10 16.06C9.85 16.06 9.71 16.02 9.58 15.93L7.33 14.43C6.99 14.2 6.89 13.73 7.12 13.39C7.35 13.04 7.82 12.95 8.16 13.18L9.99001 14.4L11.82 13.18C12.16 12.95 12.63 13.04 12.86 13.39C13.1 13.74 13.01 14.2 12.67 14.43ZM14.5 10.99C14.5 11.77 13.65 12.25 12.99 11.85L10.52 10.37C10.2 10.18 9.81001 10.18 9.49001 10.37L7.02 11.85C6.35 12.25 5.50999 11.77 5.50999 10.99V7.16C5.50999 6.82 5.69 6.50001 5.97 6.32001L9.47 4.10001C9.8 3.89001 10.21 3.89001 10.54 4.10001L14.04 6.32001C14.33 6.50001 14.5 6.82 14.5 7.16V10.99Z" fill="#6D668C"/>
</svg>
