<svg width="15" height="20" viewBox="0 0 15 20" fill="none" xmlns="http://www.w3.org/2000/svg">
<path d="M4.76352 18.3025C4.93352 18.7825 4.41351 19.2225 3.97351 18.9625L0.823516 17.1725C0.253516 16.8425 -0.0964721 16.0525 0.0235279 15.4125L0.96353 10.7425C1.07353 10.1925 1.83353 10.1425 2.02353 10.6625L4.76352 18.3025Z" fill="#6D668C"/>
<path d="M14.1434 17.172L10.9834 18.972C10.5434 19.222 10.0234 18.792 10.1934 18.312L12.9434 10.602C13.1334 10.082 13.8934 10.132 14.0034 10.682L14.9534 15.412C15.0634 16.052 14.7134 16.842 14.1434 17.172Z" fill="#6D668C"/>
<path d="M12.5634 5.3125C12.8034 5.6125 12.8734 6.0125 12.7434 6.3725L8.00338 19.6225C7.83338 20.1125 7.14338 20.1125 6.97338 19.6225L2.23339 6.3825C2.10339 6.0225 2.17338 5.6225 2.41338 5.3225L6.23339 0.6225C6.92339 -0.2075 8.06339 -0.2075 8.76339 0.6225L12.5634 5.3125Z" fill="#6D668C"/>
</svg>
