<svg width="19" height="18" viewBox="0 0 19 18" fill="none" xmlns="http://www.w3.org/2000/svg">
<path fill-rule="evenodd" clip-rule="evenodd" d="M6.87949 9.26402C6.73549 9.39502 6.55449 9.46002 6.37449 9.46002C6.17049 9.46002 5.96749 9.37702 5.81949 9.21502L3.99649 7.21502C3.71749 6.90902 3.73949 6.434 4.04549 6.156C4.35048 5.875 4.82548 5.898 5.10548 6.20399L6.92849 8.20402C7.20749 8.51102 7.18549 8.98502 6.87949 9.26402ZM18.5725 5.399L15.6315 1.08C15.1745 0.404 14.4145 0 13.5975 0H5.41049C4.59449 0 3.83449 0.40399 3.37849 1.07799L0.427485 5.399C-0.213515 6.339 -0.126515 7.59202 0.640485 8.44702L7.94648 16.467C8.34348 16.904 8.90948 17.155 9.49948 17.155C10.0895 17.155 10.6555 16.904 11.0515 16.466L18.3585 8.43702C19.1285 7.59302 19.2165 6.344 18.5725 5.399Z" fill="#6D668C"/>
</svg>
