<svg width="366" height="164" viewBox="0 0 366 164" fill="none" xmlns="http://www.w3.org/2000/svg">
<g opacity="0.64">
<mask id="mask0_209_1546" style="mask-type:alpha" maskUnits="userSpaceOnUse" x="8" y="0" width="350" height="148">
<path d="M8 16C8 7.16344 15.1634 0 24 0H342C350.837 0 358 7.16344 358 16V132C358 140.837 350.837 148 342 148H24C15.1634 148 8 140.837 8 132V16Z" fill="url(#paint0_linear_209_1546)"/>
<path d="M8 16C8 7.16344 15.1634 0 24 0H342C350.837 0 358 7.16344 358 16V132C358 140.837 350.837 148 342 148H24C15.1634 148 8 140.837 8 132V16Z" fill="url(#paint1_linear_209_1546)" fill-opacity="0.12"/>
</mask>
<g mask="url(#mask0_209_1546)">
<circle cx="-18" cy="74" r="110" stroke="#442E66" stroke-opacity="0.64" stroke-width="24" stroke-dasharray="48 48"/>
<circle cx="-18" cy="74" r="62" fill="#442E66" fill-opacity="0.64"/>
<path d="M113.795 6.73145L40.4324 -140H188L247.027 -22.4457L311.113 -140H344L262.205 8.84573L335.568 156H188L129.395 38.0229L113.795 6.73145Z" fill="url(#paint2_linear_209_1546)" fill-opacity="0.08"/>
<path d="M468 156L385.435 -8H343L425.72 156H468Z" fill="url(#paint3_linear_209_1546)" fill-opacity="0.08"/>
</g>
</g>
<defs>
<linearGradient id="paint0_linear_209_1546" x1="183" y1="-50.5667" x2="183" y2="299.7" gradientUnits="userSpaceOnUse">
<stop stop-color="#1F1F38"/>
<stop offset="1" stop-color="#302136"/>
</linearGradient>
<linearGradient id="paint1_linear_209_1546" x1="8" y1="74" x2="358" y2="74" gradientUnits="userSpaceOnUse">
<stop stop-color="#9849F5" stop-opacity="0"/>
<stop offset="1" stop-color="#CD61FF" stop-opacity="0.64"/>
</linearGradient>
<linearGradient id="paint2_linear_209_1546" x1="188" y1="-140" x2="188" y2="156" gradientUnits="userSpaceOnUse">
<stop stop-color="#B3A0E9" stop-opacity="0.48"/>
<stop offset="1" stop-color="#E9A0DD" stop-opacity="0.24"/>
</linearGradient>
<linearGradient id="paint3_linear_209_1546" x1="405.5" y1="-8" x2="405.5" y2="156" gradientUnits="userSpaceOnUse">
<stop stop-color="#B3A0E9" stop-opacity="0.64"/>
<stop offset="1" stop-color="#E9A0DD" stop-opacity="0.48"/>
</linearGradient>
</defs>
</svg>
