<svg width="19" height="15" viewBox="0 0 19 15" fill="none" xmlns="http://www.w3.org/2000/svg">
<path d="M15.4017 1.21818C14.2248 0.649091 12.9663 0.235501 11.6507 0C11.4891 0.301904 11.3003 0.707973 11.1702 1.031C9.77159 0.81363 8.38586 0.81363 7.013 1.031C6.88287 0.707973 6.68981 0.301904 6.52679 0C5.2097 0.235501 3.94981 0.65061 2.77287 1.22119C0.398972 4.9285 -0.244554 8.54373 0.0772096 12.1076C1.65171 13.3228 3.17758 14.0609 4.67771 14.544C5.0481 14.0171 5.37843 13.4571 5.66301 12.8669C5.12102 12.6541 4.60192 12.3914 4.11142 12.0865C4.24155 11.9869 4.36883 11.8827 4.4918 11.7755C7.48348 13.2216 10.734 13.2216 13.69 11.7755C13.8144 11.8827 13.9416 11.9869 14.0703 12.0865C13.5784 12.3929 13.0579 12.6556 12.5159 12.8684C12.8005 13.4571 13.1294 14.0187 13.5012 14.5455C15.0028 14.0624 16.53 13.3243 18.1045 12.1076C18.4821 7.97617 17.4596 4.39414 15.4017 1.21818ZM6.07059 9.91587C5.17252 9.91587 4.43602 9.04941 4.43602 7.99427C4.43602 6.93914 5.15679 6.07119 6.07059 6.07119C6.98441 6.07119 7.72088 6.93762 7.70515 7.99427C7.70657 9.04941 6.98441 9.91587 6.07059 9.91587ZM12.1112 9.91587C11.2131 9.91587 10.4766 9.04941 10.4766 7.99427C10.4766 6.93914 11.1973 6.07119 12.1112 6.07119C13.025 6.07119 13.7615 6.93762 13.7457 7.99427C13.7457 9.04941 13.025 9.91587 12.1112 9.91587Z" fill="#988FBE"/>
</svg>
