<svg width="20" height="20" viewBox="0 0 20 20" fill="none" xmlns="http://www.w3.org/2000/svg">
<path d="M13.405 1.79193C15.9895 1.89531 17.1956 3.13587 17.3334 5.72038C17.3679 6.71973 17.4024 7.02987 17.4024 9.57992C17.4024 12.13 17.4024 12.4401 17.3334 13.4395C17.2301 16.024 16.024 17.2301 13.405 17.3679C12.4056 17.4024 12.0955 17.4368 9.54545 17.4368C6.9954 17.4368 6.68527 17.4368 5.68592 17.3679C3.10141 17.2645 1.8953 16.024 1.75746 13.4395C1.723 12.4401 1.68854 12.13 1.68854 9.57992C1.68854 7.02987 1.68854 6.71973 1.75746 5.72038C1.86084 3.13587 3.06695 1.92977 5.68592 1.79193C6.68527 1.75747 6.9954 1.72301 9.54545 1.72301C12.0955 1.72301 12.4056 1.72301 13.405 1.79193ZM9.54545 0C6.96094 0 6.61634 -1.05267e-06 5.617 0.0689192C2.13652 0.24122 0.206754 2.13653 0.068914 5.617C0.0344538 6.65081 0 6.96095 0 9.54545C0 12.13 -6.31087e-06 12.4746 0.068914 13.4739C0.241215 16.9544 2.13652 18.8841 5.617 19.022C6.6508 19.0565 6.96094 19.0909 9.54545 19.0909C12.13 19.0909 12.4746 19.0909 13.4739 19.022C16.9544 18.8497 18.8841 16.9544 19.022 13.4739C19.0564 12.4401 19.0909 12.13 19.0909 9.54545C19.0909 6.96095 19.0909 6.61635 19.022 5.617C18.8497 2.13653 16.9544 0.20676 13.4739 0.0689192C12.4746 -1.05267e-06 12.13 0 9.54545 0ZM9.54545 4.65212C6.8231 4.65212 4.65212 6.85756 4.65212 9.54545C4.65212 12.2678 6.85756 14.4388 9.54545 14.4388C12.2678 14.4388 14.4388 12.2333 14.4388 9.54545C14.4388 6.85756 12.2333 4.65212 9.54545 4.65212ZM9.54545 12.7502C7.78798 12.7502 6.37512 11.3374 6.37512 9.57992C6.37512 7.82245 7.78798 6.40959 9.54545 6.40959C11.3029 6.40959 12.7158 7.82245 12.7158 9.57992C12.7158 11.3029 11.3029 12.7502 9.54545 12.7502ZM14.6456 3.30817C14.0253 3.30817 13.5084 3.82507 13.5084 4.44535C13.5084 5.06564 14.0253 5.58254 14.6456 5.58254C15.2658 5.58254 15.7827 5.06564 15.7827 4.44535C15.7827 3.82507 15.2658 3.30817 14.6456 3.30817Z" fill="#988FBE"/>
</svg>
