<svg width="24" height="18" viewBox="0 0 24 18" fill="none" xmlns="http://www.w3.org/2000/svg">
<path d="M20.0334 1.47202C18.5248 0.791695 16.9077 0.288844 15.2167 0.00290881C15.2017 1.78284e-05 15.1861 0.00188088 15.1721 0.00824035C15.1582 0.0145998 15.1465 0.0251411 15.1388 0.0384042C14.9318 0.402232 14.701 0.87649 14.5393 1.25116C12.7458 0.983209 10.9225 0.983209 9.12904 1.25116C8.94893 0.835927 8.74582 0.431046 8.52066 0.0384042C8.51303 0.0249778 8.50149 0.0141981 8.48757 0.00750362C8.47365 0.000809161 8.45802 -0.00148175 8.44277 0.000936756C6.75273 0.286872 5.13566 0.789723 3.62607 1.47104C3.61308 1.47648 3.60207 1.48577 3.59451 1.49766C0.526022 6.00853 -0.315052 10.408 0.0980898 14.7522C0.0992394 14.7629 0.102542 14.7732 0.107797 14.7825C0.113052 14.7918 0.120149 14.8 0.128656 14.8065C1.91965 16.1103 3.91727 17.1036 6.03787 17.7447C6.05265 17.7492 6.06846 17.7492 6.08324 17.7446C6.09801 17.7401 6.11107 17.7312 6.12069 17.719C6.57702 17.1088 6.98139 16.4614 7.32955 15.7836C7.33439 15.7743 7.33717 15.7641 7.33772 15.7537C7.33827 15.7432 7.33657 15.7328 7.33274 15.7231C7.3289 15.7133 7.32303 15.7046 7.3155 15.6973C7.30798 15.6901 7.29898 15.6845 7.28913 15.681C6.65216 15.4412 6.03499 15.1517 5.4433 14.8153C5.43267 14.8093 5.42371 14.8006 5.41723 14.7903C5.41074 14.7799 5.40694 14.768 5.40616 14.7558C5.40538 14.7436 5.40764 14.7314 5.41275 14.7203C5.41785 14.7091 5.42564 14.6995 5.43541 14.6921C5.55965 14.6004 5.68389 14.5047 5.80221 14.4091C5.81286 14.4005 5.82569 14.395 5.83927 14.3933C5.85285 14.3915 5.86664 14.3936 5.87912 14.3992C9.75122 16.1385 13.9448 16.1385 17.7715 14.3992C17.784 14.3933 17.7979 14.3909 17.8117 14.3925C17.8255 14.3941 17.8385 14.3995 17.8494 14.4081C17.9677 14.5047 18.091 14.6004 18.2162 14.6921C18.2261 14.6993 18.234 14.7089 18.2392 14.7199C18.2445 14.7309 18.247 14.7431 18.2464 14.7553C18.2458 14.7675 18.2422 14.7794 18.2359 14.7899C18.2296 14.8003 18.2208 14.8091 18.2103 14.8153C17.6206 15.1545 17.0073 15.4414 16.3635 15.68C16.3536 15.6836 16.3446 15.6893 16.337 15.6966C16.3295 15.704 16.3236 15.7128 16.3198 15.7226C16.316 15.7324 16.3143 15.7429 16.3148 15.7535C16.3154 15.764 16.3182 15.7742 16.323 15.7836C16.678 16.4609 17.0842 17.1058 17.5309 17.7181C17.5402 17.7306 17.5531 17.74 17.568 17.745C17.5828 17.7499 17.5988 17.7501 17.6137 17.7457C19.738 17.1064 21.7388 16.1127 23.5318 14.8065C23.5406 14.8003 23.5479 14.7924 23.5533 14.7832C23.5588 14.7741 23.5622 14.7638 23.5634 14.7532C24.0564 9.73062 22.7371 5.36666 20.064 1.49963C20.0574 1.48706 20.0466 1.47727 20.0334 1.47202ZM7.90835 12.1068C6.74287 12.1068 5.7815 11.0528 5.7815 9.76019C5.7815 8.46659 6.72414 7.41356 7.90835 7.41356C9.10143 7.41356 10.0539 8.47546 10.0352 9.76019C10.0352 11.0538 9.09256 12.1068 7.90835 12.1068ZM15.7718 12.1068C14.6054 12.1068 13.645 11.0528 13.645 9.76019C13.645 8.46659 14.5867 7.41356 15.7718 7.41356C16.9649 7.41356 17.9174 8.47546 17.8987 9.76019C17.8987 11.0538 16.9659 12.1068 15.7718 12.1068Z" fill="#A69FC8"/>
</svg>
