<svg width="22" height="22" viewBox="0 0 22 22" fill="none" xmlns="http://www.w3.org/2000/svg">
<path d="M16.0448 0H5.95519C2.67144 0 0 2.67144 0 5.95519V16.0449C0 19.3285 2.67144 22 5.95519 22H16.0449C19.3285 22 22 19.3285 22 16.0449V5.95519C22 2.67144 19.3285 0 16.0448 0V0ZM11 17.0154C7.683 17.0154 4.98453 14.317 4.98453 11C4.98453 7.683 7.683 4.98453 11 4.98453C14.317 4.98453 17.0154 7.683 17.0154 11C17.0154 14.317 14.317 17.0154 11 17.0154ZM17.1593 6.40317C16.179 6.40317 15.3818 5.6059 15.3818 4.62568C15.3818 3.64546 16.179 2.84802 17.1593 2.84802C18.1395 2.84802 18.9369 3.64546 18.9369 4.62568C18.9369 5.6059 18.1395 6.40317 17.1593 6.40317Z" fill="#A69FC8"/>
<path d="M10.9999 6.27344C8.39424 6.27344 6.27417 8.39334 6.27417 10.9992C6.27417 13.6048 8.39424 15.7249 10.9999 15.7249C13.6057 15.7249 15.7256 13.6048 15.7256 10.9992C15.7256 8.39334 13.6057 6.27344 10.9999 6.27344Z" fill="#A69FC8"/>
<path d="M17.1581 4.13477C16.8895 4.13477 16.6709 4.3534 16.6709 4.62201C16.6709 4.89061 16.8895 5.10925 17.1581 5.10925C17.4269 5.10925 17.6455 4.89078 17.6455 4.62201C17.6455 4.35324 17.4269 4.13477 17.1581 4.13477Z" fill="#A69FC8"/>
</svg>
