<svg width="21" height="24" viewBox="0 0 21 24" fill="none" xmlns="http://www.w3.org/2000/svg">
<path d="M12.8713 19.9295V22.6209L10.4658 24L8.12866 22.6209V19.9295L10.4658 21.3086L12.8713 19.9295ZM0 10.6209L2.33713 12V16.6154L6.36156 18.962V21.6534L0 17.9944V10.6209ZM20.9316 10.6209V18.0055L14.5016 21.6645V18.9731L18.526 16.6265V12.0111L20.9316 10.6209ZM14.4902 6.962L16.8958 8.34105V11.0324L12.8713 13.379V18.0611L10.5342 19.4402L8.20846 18.0611V13.3679L4.03583 11.0213V8.32993L6.44136 6.95087L10.4658 9.29749L14.4902 6.962ZM4.03583 12.9564L6.37296 14.3355V17.0269L4.03583 15.6478V12.9564ZM16.8958 12.9564V15.6478L14.5586 17.0269V14.3355L16.8958 12.9564ZM2.33713 4.61538L4.74267 5.99443L2.33713 7.37349V10.0649L0 8.68581V5.99443L2.33713 4.61538ZM18.5944 4.61538L21 5.99443V8.68581L18.5944 10.0649V7.37349L16.2573 5.99443L18.5944 4.61538ZM10.4658 4.61538L12.8713 5.99443L10.4658 7.37349L8.12866 5.99443L10.4658 4.61538ZM10.4658 0L16.8958 3.65894L14.5586 5.03799L10.5342 2.69138L6.42996 5.03799L4.09283 3.65894L10.4658 0Z" fill="#988FBE"/>
</svg>
