<svg width="24" height="24" viewBox="0 0 24 24" fill="none" xmlns="http://www.w3.org/2000/svg">
<path fill-rule="evenodd" clip-rule="evenodd" d="M9.11201 23.6446C15.5433 25.2394 22.0495 21.3191 23.6443 14.8881C25.2364 8.46955 21.3342 1.97352 14.9202 0.363886C14.9112 0.361409 14.902 0.35912 14.893 0.356862L14.8876 0.355518C8.4566 -1.23927 1.95032 2.68129 0.355535 9.11253C-1.23925 15.5435 2.68104 22.0501 9.11201 23.6446ZM11.5448 10.8613C12.4466 11.1028 14.375 11.6193 14.7166 10.2529H14.7053C15.0533 8.85445 13.1458 8.43617 12.23 8.23537C12.1294 8.2133 12.0408 8.19387 11.9684 8.17604L11.3124 10.8004C11.3785 10.8167 11.4568 10.8377 11.5448 10.8613ZM10.5164 15.0888C11.5909 15.3727 13.9366 15.9925 14.3079 14.4936C14.688 12.9623 12.4261 12.452 11.3131 12.2009C11.186 12.1722 11.0738 12.1469 10.9823 12.1239L10.2589 15.0219C10.3328 15.0403 10.4194 15.0632 10.5164 15.0888ZM14.6829 7.25016C16.3287 7.82 17.5434 8.6784 17.3072 10.2756L17.3069 10.2764C17.1234 11.4612 16.4858 12.0124 15.6236 12.2111C16.8046 12.826 17.4082 13.767 16.8345 15.4017C16.1222 17.4335 14.4389 17.6028 12.1895 17.1787L11.6458 19.3606L10.3299 19.0345L10.8622 16.8637C10.5199 16.7811 10.1709 16.6912 9.81619 16.5938L9.27631 18.757L7.96037 18.4272L8.50402 16.2415L7.5668 15.9977L5.85352 15.5739L6.50595 14.0742C6.50595 14.0742 7.46585 14.329 7.46585 14.3104H7.46612C7.71905 14.3908 7.98898 14.2518 8.06943 13.9991L8.92809 10.5461L9.06684 10.5836C9.02338 10.5639 8.97803 10.5491 8.93187 10.5385L9.54679 8.07536C9.57567 7.70123 9.30412 7.37055 8.93187 7.32547C8.9505 7.31036 7.97576 7.0855 7.97576 7.0855L8.32452 5.6794L10.1428 6.13316L10.9826 6.3205L11.5225 4.15723L12.8384 4.48709L12.3136 6.61662C12.6662 6.69544 13.0222 6.77804 13.3672 6.86415L13.892 4.75703L15.2227 5.08689L14.6829 7.25016Z" fill="#988FBE"/>
</svg>
