<svg width="24" height="24" viewBox="0 0 24 24" fill="none" xmlns="http://www.w3.org/2000/svg">
<path fill-rule="evenodd" clip-rule="evenodd" d="M24 12C24 18.6274 18.6274 24 12 24C5.37258 24 0 18.6274 0 12C0 5.37258 5.37258 0 12 0C18.6274 0 24 5.37258 24 12ZM13.1728 13.1146C13.2265 13.1123 13.261 13.1108 13.2781 13.1108C16.197 12.9718 18.39 12.4621 18.39 11.8598C18.39 11.2421 16.197 10.7324 13.2781 10.6089V12.6011C13.1854 12.6166 12.7375 12.6475 11.8263 12.6475C11.0696 12.6475 10.5136 12.6166 10.3282 12.6011V10.6089C7.40933 10.7324 5.21628 11.2421 5.21628 11.8598C5.21628 12.4776 7.39389 12.9872 10.3282 13.1108C10.5136 13.1262 11.0541 13.1417 11.8109 13.1417C12.5566 13.1417 12.9839 13.1229 13.1728 13.1146ZM13.2781 8.61658V10.3926C16.5985 10.5471 19.085 11.2112 19.085 11.9988C19.085 12.7865 16.5985 13.4351 13.2626 13.5741V19.2884H10.3128V13.5741C7.00779 13.4197 4.50586 12.771 4.50586 11.9834C4.50586 11.1957 6.99234 10.5471 10.3128 10.3926V8.61658H6.23559V5.89844H17.3553V8.61658H13.2781Z" fill="#988FBE"/>
</svg>
