<svg width="56" height="18" viewBox="0 0 56 18" fill="none" xmlns="http://www.w3.org/2000/svg">
<g clip-path="url(#clip0_767_820)">
<path d="M28.7032 5.73112C28.6716 8.22856 30.9282 9.62215 32.6281 10.4508C34.3746 11.3009 34.9613 11.8461 34.9543 12.6065C34.9413 13.77 33.5612 14.2835 32.2698 14.3034C30.0166 14.3384 28.7065 13.6949 27.665 13.2083L26.8533 17.0076C27.8983 17.4892 29.8332 17.9093 31.8396 17.9277C36.5495 17.9277 39.6309 15.602 39.6476 11.9962C39.666 7.41986 33.3197 7.16656 33.3631 5.12107C33.378 4.50083 33.9697 3.83895 35.2661 3.67066C35.9078 3.58565 37.6793 3.52059 39.6877 4.44575L40.4759 0.769846C39.3959 0.37645 38.0077 -0.000249863 36.2794 -0.000249863C31.8463 -0.000249863 28.7284 2.3571 28.7032 5.73112ZM48.0504 0.316376C47.1903 0.316376 46.4656 0.818207 46.1421 1.5883L39.4143 17.6577H44.1207L45.0573 15.0686H50.8085L51.3518 17.6577H55.4999L51.8801 0.316376H48.0504ZM48.7088 5.00093L50.067 11.5128H46.3472L48.7088 5.00093ZM22.9969 0.316593L19.2871 17.6575H23.772L27.4801 0.31616H22.9969V0.316593ZM16.3623 0.31616L11.6942 12.1196L9.80593 2.08363C9.58436 0.963291 8.70937 0.316376 7.73769 0.316376H0.106881L0 0.819942C1.56657 1.15999 3.34647 1.70845 4.42482 2.29529C5.08475 2.65377 5.27293 2.96714 5.48973 3.819L9.06622 17.6577H13.8056L21.0718 0.316376H16.3623" fill="#988FBE"/>
</g>
<defs>
<clipPath id="clip0_767_820">
<rect width="55.4999" height="18" fill="white"/>
</clipPath>
</defs>
</svg>
