<svg width="59" height="24" viewBox="0 0 59 24" fill="none" xmlns="http://www.w3.org/2000/svg">
<g clip-path="url(#clip0_767_826)">
<path d="M11.7346 0C10.7587 0.0518568 9.56159 0.64497 8.87195 1.47792C8.25062 2.19095 7.70086 3.35773 7.84399 4.45321C8.94352 4.55044 10.0398 3.90547 10.7327 3.09845C11.3996 2.26225 11.855 1.14409 11.7346 0.00324315V0ZM20.6347 1.36124V19.1643H23.4062V13.0809H27.2448C30.7516 13.0809 33.2141 10.6857 33.2141 7.2081C33.2141 3.74017 30.8004 1.358 27.3326 1.358L20.6347 1.36124ZM23.4062 3.69156H26.6007C29.0047 3.69156 30.3775 4.97501 30.3775 7.22106C30.3775 9.46387 29.0047 10.7603 26.591 10.7603H23.4062V3.69156ZM11.4256 4.66387C9.96171 4.69628 8.72556 5.57137 8.0099 5.57137C7.24543 5.57137 6.08085 4.71573 4.81867 4.73842C3.99764 4.75883 3.19627 4.99306 2.4943 5.41782C1.79232 5.84257 1.2142 6.44303 0.81744 7.15948C-0.896908 10.1024 0.365269 14.468 2.03407 16.8664C2.84408 18.0527 3.81999 19.3588 5.10494 19.3102C6.31832 19.2648 6.79651 18.5258 8.27014 18.5258C9.74701 18.5258 10.1764 19.3102 11.4581 19.2875C12.7919 19.2648 13.6279 18.1013 14.4346 16.9118C15.365 15.5603 15.7456 14.2541 15.7684 14.1861C15.7456 14.1601 13.1985 13.1878 13.1757 10.2676C13.1497 7.8239 15.1763 6.66036 15.2707 6.58906C14.1256 4.90371 12.3429 4.71573 11.7249 4.66711C11.6252 4.66088 11.5254 4.65872 11.4256 4.66063V4.66387ZM39.834 5.95057C36.6135 5.95057 34.6097 7.67805 34.46 10.0213H36.9876C37.2219 8.86103 38.188 8.12207 39.7365 8.12207C41.3695 8.12207 42.3486 8.98419 42.3486 10.4265V11.4279L38.7801 11.6354C35.6864 11.8104 33.9396 13.204 33.9396 15.4728C33.9396 17.8063 35.7222 19.3847 38.2726 19.3847C39.9837 19.3847 41.6297 18.474 42.3844 17.0285H42.4462V19.1643H45.0096V10.219C45.0096 7.61647 42.9927 5.95057 39.834 5.95057ZM46.1449 6.18392L50.8488 19.1773C50.8488 19.187 50.6113 19.9551 50.6113 19.9778C50.2047 21.3067 49.5378 21.8285 48.2984 21.8285C48.074 21.8285 47.6283 21.8285 47.4299 21.7799V23.9384C47.6251 23.974 48.2984 24 48.5196 24C51.2197 24 52.5079 22.9888 53.6204 19.8417L58.5 6.18392H55.6763L52.3842 16.7465H52.3355L49.0401 6.18068L46.1449 6.18392ZM42.3486 13.2786V14.3028C42.3486 15.9913 40.8848 17.2748 39.0175 17.2748C37.5797 17.2748 36.6396 16.5358 36.6396 15.3982C36.6396 14.2898 37.5439 13.5832 39.1412 13.4763L42.3486 13.2786Z" fill="#988FBE"/>
</g>
<defs>
<clipPath id="clip0_767_826">
<rect width="58.5" height="24" fill="white"/>
</clipPath>
</defs>
</svg>
