<svg width="24" height="24" viewBox="0 0 24 24" fill="none" xmlns="http://www.w3.org/2000/svg">
<path fill-rule="evenodd" clip-rule="evenodd" d="M24 12C24 18.6274 18.6274 24 12 24C5.37258 24 0 18.6274 0 12C0 5.37258 5.37258 0 12 0C18.6274 0 24 5.37258 24 12ZM9.75293 20.0623C9.75293 20.3446 9.53176 20.5046 9.25882 20.4199C5.63059 19.2623 3 15.8599 3 11.8458C3 7.83169 5.63059 4.42934 9.25882 3.27169C9.53176 3.18699 9.75293 3.34699 9.75293 3.62934V4.32581C9.75293 4.51404 9.60705 4.73522 9.42823 4.7964C6.55764 5.85051 4.50117 8.60816 4.50117 11.8411C4.50117 15.074 6.55764 17.8317 9.42823 18.8858C9.60705 18.9517 9.75293 19.1682 9.75293 19.3564V20.0623ZM12.7503 17.4684C12.7503 17.6754 12.5808 17.8448 12.3738 17.8448H11.6255C11.4185 17.8448 11.2491 17.6754 11.2491 17.4684V16.2825C9.61143 16.0613 8.81143 15.1436 8.59496 13.8966C8.55731 13.6848 8.72673 13.4919 8.9432 13.4919H9.79967C9.97849 13.4919 10.1291 13.6189 10.1667 13.7978C10.3267 14.5413 10.755 15.1107 12.0679 15.1107C13.0373 15.1107 13.7244 14.5695 13.7244 13.7601C13.7244 12.9507 13.3197 12.6448 11.8985 12.4095C9.79967 12.1272 8.80673 11.4919 8.80673 9.84483C8.80673 8.57424 9.76673 7.58601 11.2538 7.37424V6.21189C11.2538 6.00483 11.4232 5.83542 11.6303 5.83542H12.3785C12.5855 5.83542 12.755 6.00483 12.755 6.21189V7.40718C13.9644 7.62365 14.7314 8.31071 14.9808 9.44953C15.0279 9.666 14.8585 9.86836 14.6373 9.86836H13.8467C13.6773 9.86836 13.5361 9.75541 13.4844 9.59071C13.2726 8.866 12.755 8.55542 11.8561 8.55542C10.8632 8.55542 10.3503 9.03542 10.3503 9.70836C10.3503 10.4189 10.642 10.7766 12.1667 10.9978C14.2279 11.2801 15.2914 11.8684 15.2914 13.6236C15.2914 14.9554 14.3032 16.0331 12.755 16.2825V17.4684H12.7503ZM14.2533 20.0623C14.2533 20.3447 14.4745 20.5047 14.7474 20.4199C18.3756 19.2576 21.0015 15.86 21.0062 11.8552C21.0062 7.84113 18.3756 4.43879 14.7474 3.28114C14.4745 3.19173 14.2533 3.35643 14.2533 3.63879V4.33526C14.2533 4.52349 14.3992 4.73996 14.578 4.80584C17.4486 5.85996 19.5051 8.61761 19.5051 11.8505C19.5051 15.0835 17.4486 17.8411 14.578 18.8952C14.3804 18.9658 14.2533 19.1588 14.2533 19.3658V20.0623Z" fill="#988FBE"/>
</svg>
