<svg width="19" height="19" viewBox="0 0 19 19" fill="none" xmlns="http://www.w3.org/2000/svg">
<path d="M9.19995 0.100586C14.1893 0.100586 18.2996 3.73059 18.2996 7.68848V10.9277C18.2996 13.2646 17.2717 15.1121 15.6169 16.3721C13.9646 17.6301 11.6917 18.2998 9.19995 18.2998C8.95342 18.2998 8.73942 18.2209 8.58667 18.0742C8.43374 17.9273 8.35041 17.7202 8.35034 17.4805V16.04C8.35038 15.8003 8.43375 15.5932 8.58667 15.4463C8.73942 15.2996 8.95342 15.2197 9.19995 15.2197H11.45C11.6965 15.2197 11.9105 15.2996 12.0632 15.4463C12.2162 15.5932 12.2995 15.8003 12.2996 16.04V16.0713C13.6239 15.9161 14.8157 15.2681 15.5515 14.4111C15.4113 14.4244 15.2766 14.42 15.1423 14.4053C14.918 14.3807 14.7052 14.3398 14.45 14.3398C14.2034 14.3398 13.9894 14.2609 13.8367 14.1143C13.6837 13.9673 13.6004 13.7603 13.6003 13.5205V7.75977C13.6004 7.52003 13.6837 7.31291 13.8367 7.16602C13.9894 7.01937 14.2034 6.94043 14.45 6.94043C15.2248 6.94043 15.9972 7.18916 16.5955 7.57129C16.5551 6.06618 15.7414 4.62758 14.4333 3.55371C13.092 2.45251 11.2395 1.74023 9.19995 1.74023C7.16044 1.74023 5.30803 2.45254 3.96655 3.54492C2.63702 4.62762 1.81599 6.07765 1.80054 7.57324C2.39925 7.18978 3.17356 6.94043 3.94995 6.94043C4.19648 6.94043 4.41048 7.01937 4.56323 7.16602C4.71618 7.31291 4.79946 7.52003 4.79956 7.75977V13.5205C4.79949 13.7603 4.71617 13.9673 4.56323 14.1143C4.41048 14.2609 4.19648 14.3398 3.94995 14.3398C1.79876 14.3398 0.100577 12.7155 0.100342 10.6406V7.68848C0.100342 3.36781 4.21394 0.100586 9.19995 0.100586Z" fill="#6D668C" stroke="#6D668C" stroke-width="0.2"/>
</svg>
