<svg width="376" height="112" viewBox="0 0 376 112" fill="none" xmlns="http://www.w3.org/2000/svg">
<mask id="mask0_206_12931" style="mask-type:alpha" maskUnits="userSpaceOnUse" x="8" y="0" width="360" height="96">
<path d="M8 0H368V80C368 88.8366 360.837 96 352 96H24C15.1634 96 8 88.8366 8 80V0Z" fill="url(#paint0_linear_206_12931)"/>
</mask>
<g mask="url(#mask0_206_12931)">
<path d="M41.7946 -25.2686L-31.5676 -172H116L175.027 -54.4457L239.114 -172H272L190.205 -23.1543L263.568 124H116L57.3946 6.02286L-7.53513 124H-40L41.7946 -25.2686Z" fill="url(#paint1_linear_206_12931)" fill-opacity="0.08"/>
<path d="M329.564 124L254.553 -24H216L291.152 124H329.564Z" fill="url(#paint2_linear_206_12931)" fill-opacity="0.08"/>
<path d="M260.989 -24L336 124" stroke="url(#paint3_linear_206_12931)" stroke-opacity="0.08" stroke-width="2"/>
<path d="M336 -24L412 124" stroke="url(#paint4_linear_206_12931)" stroke-opacity="0.08" stroke-width="2"/>
<path d="M328 -24L404 124" stroke="url(#paint5_linear_206_12931)" stroke-opacity="0.08" stroke-width="4"/>
</g>
<defs>
<linearGradient id="paint0_linear_206_12931" x1="188" y1="-32.8" x2="188" y2="194.4" gradientUnits="userSpaceOnUse">
<stop stop-color="#1D1C34"/>
<stop offset="1" stop-color="#271C2D"/>
</linearGradient>
<linearGradient id="paint1_linear_206_12931" x1="116" y1="-172" x2="116" y2="124" gradientUnits="userSpaceOnUse">
<stop stop-color="#B3A0E9" stop-opacity="0.48"/>
<stop offset="1" stop-color="#E9A0DD" stop-opacity="0.24"/>
</linearGradient>
<linearGradient id="paint2_linear_206_12931" x1="272.782" y1="-24" x2="272.782" y2="124" gradientUnits="userSpaceOnUse">
<stop stop-color="#B3A0E9" stop-opacity="0.64"/>
<stop offset="1" stop-color="#E9A0DD" stop-opacity="0.48"/>
</linearGradient>
<linearGradient id="paint3_linear_206_12931" x1="185.116" y1="-173.701" x2="185.116" y2="124" gradientUnits="userSpaceOnUse">
<stop stop-color="#B3A0E9"/>
<stop offset="1" stop-color="#B3A0E9" stop-opacity="0.24"/>
</linearGradient>
<linearGradient id="paint4_linear_206_12931" x1="259.126" y1="-173.701" x2="259.126" y2="124" gradientUnits="userSpaceOnUse">
<stop stop-color="#B3A0E9"/>
<stop offset="1" stop-color="#B3A0E9" stop-opacity="0.24"/>
</linearGradient>
<linearGradient id="paint5_linear_206_12931" x1="251.126" y1="-173.701" x2="251.126" y2="124" gradientUnits="userSpaceOnUse">
<stop stop-color="#B3A0E9"/>
<stop offset="1" stop-color="#B3A0E9" stop-opacity="0.24"/>
</linearGradient>
</defs>
</svg>
